# xmcd
#
# Track frame offsets:
# 183
# 27958
# 55190
# 89108
# 110115
# 134723
# 156723
# 173250
# 210518
# 238378
# 261085
# 297118
#
# Disc length: 4424 seconds
#
#
# Revision: 2
# Processed by: cddbd v1.4PL0 Copyright (c) Steve Scherf et al.
# Submitted via: FreeRIP 2.40 
#
DISCID=b811460c
DTITLE=John Lee Hooker - The Cream
DYEAR=1989
DGENRE=Blues
TTITLE0=Hey, Hey
TTITLE1=She's Gone
TTITLE2=Tupelo
TTITLE3=You Know It Ain't Right
TTITLE4=Sugar Mama
TTITLE5=One Room Country Shack
TTITLE6=I Want You to Roll Me
TTITLE7=Bar Room Drinking
TTITLE8=Little Girl
TTITLE9=Louise
TTITLE10=When My First Wife Left Me
TTITLE11=Boogie On
EXTD=
EXTT0=J.L. Hooker
EXTT1=J.L. Hooker
EXTT2=J.L. Hooker
EXTT3=J.L. Hooker
EXTT4=J.L. Hooker
EXTT5=J.L. Hooker
EXTT6=J.L. Hooker
EXTT7=J.L. Hooker
EXTT8=J.L. Hooker
EXTT9=J.L. Hooker
EXTT10=J.L. Hooker
EXTT11=J.L. Hooker
PLAYORDER=
